<?xml version="1.0" encoding="UTF-8" standalone="no"?>
<!DOCTYPE svg PUBLIC "-//W3C//DTD SVG 1.1//EN"
 "http://www.w3.org/Graphics/SVG/1.1/DTD/svg11.dtd">
<!-- Generated by graphviz version 2.49.1 (20211004.0028)
 -->
<!-- Title: snakemake_dag Pages: 1 -->
<svg width="302pt" height="476pt"
 viewBox="0.00 0.00 301.50 476.00" xmlns="http://www.w3.org/2000/svg" xmlns:xlink="http://www.w3.org/1999/xlink">
<g id="graph0" class="graph" transform="scale(1 1) rotate(0) translate(4 472)">
<title>snakemake_dag</title>
<polygon fill="white" stroke="transparent" points="-4,4 -4,-472 297.5,-472 297.5,4 -4,4"/>
<!-- 0 -->
<g id="node1" class="node">
<title>0</title>
<path fill="none" stroke="#a7d856" stroke-width="2" d="M119.5,-36C119.5,-36 89.5,-36 89.5,-36 83.5,-36 77.5,-30 77.5,-24 77.5,-24 77.5,-12 77.5,-12 77.5,-6 83.5,0 89.5,0 89.5,0 119.5,0 119.5,0 125.5,0 131.5,-6 131.5,-12 131.5,-12 131.5,-24 131.5,-24 131.5,-30 125.5,-36 119.5,-36"/>
<text text-anchor="middle" x="104.5" y="-15.5" font-family="sans" font-size="10.00">all</text>
</g>
<!-- 1 -->
<g id="node2" class="node">
<title>1</title>
<path fill="none" stroke="#bed856" stroke-width="2" d="M142,-108C142,-108 67,-108 67,-108 61,-108 55,-102 55,-96 55,-96 55,-84 55,-84 55,-78 61,-72 67,-72 67,-72 142,-72 142,-72 148,-72 154,-78 154,-84 154,-84 154,-96 154,-96 154,-102 148,-108 142,-108"/>
<text text-anchor="middle" x="104.5" y="-87.5" font-family="sans" font-size="10.00">fit_refine_variant</text>
</g>
<!-- 1&#45;&gt;0 -->
<g id="edge1" class="edge">
<title>1&#45;&gt;0</title>
<path fill="none" stroke="grey" stroke-width="2" d="M104.5,-71.7C104.5,-63.98 104.5,-54.71 104.5,-46.11"/>
<polygon fill="grey" stroke="grey" stroke-width="2" points="108,-46.1 104.5,-36.1 101,-46.1 108,-46.1"/>
</g>
<!-- 2 -->
<g id="node3" class="node">
<title>2</title>
<path fill="none" stroke="#70d856" stroke-width="2" d="M137,-252C137,-252 16,-252 16,-252 10,-252 4,-246 4,-240 4,-240 4,-228 4,-228 4,-222 10,-216 16,-216 16,-216 137,-216 137,-216 143,-216 149,-222 149,-228 149,-228 149,-240 149,-240 149,-246 143,-252 137,-252"/>
<text text-anchor="middle" x="76.5" y="-231.5" font-family="sans" font-size="10.00">bootstrap_variant_median</text>
</g>
<!-- 2&#45;&gt;1 -->
<g id="edge2" class="edge">
<title>2&#45;&gt;1</title>
<path fill="none" stroke="grey" stroke-width="2" d="M51.57,-215.86C40.44,-206.67 28.5,-194.29 22.5,-180 16.31,-165.25 14.85,-158.05 22.5,-144 29.41,-131.3 40.82,-121.18 52.96,-113.33"/>
<polygon fill="grey" stroke="grey" stroke-width="2" points="55.09,-116.14 61.88,-108.01 51.5,-110.13 55.09,-116.14"/>
</g>
<!-- 7 -->
<g id="node8" class="node">
<title>7</title>
<path fill="none" stroke="#d86e56" stroke-width="2" d="M165.5,-180C165.5,-180 43.5,-180 43.5,-180 37.5,-180 31.5,-174 31.5,-168 31.5,-168 31.5,-156 31.5,-156 31.5,-150 37.5,-144 43.5,-144 43.5,-144 165.5,-144 165.5,-144 171.5,-144 177.5,-150 177.5,-156 177.5,-156 177.5,-168 177.5,-168 177.5,-174 171.5,-180 165.5,-180"/>
<text text-anchor="middle" x="104.5" y="-159.5" font-family="sans" font-size="10.00">fit_fmax_fmin_distribution</text>
</g>
<!-- 2&#45;&gt;7 -->
<g id="edge9" class="edge">
<title>2&#45;&gt;7</title>
<path fill="none" stroke="grey" stroke-width="2" d="M83.42,-215.7C86.57,-207.81 90.38,-198.3 93.88,-189.55"/>
<polygon fill="grey" stroke="grey" stroke-width="2" points="97.19,-190.69 97.66,-180.1 90.69,-188.09 97.19,-190.69"/>
</g>
<!-- 3 -->
<g id="node4" class="node">
<title>3</title>
<path fill="none" stroke="#d85656" stroke-width="2" stroke-dasharray="5,2" d="M87,-324C87,-324 12,-324 12,-324 6,-324 0,-318 0,-312 0,-312 0,-300 0,-300 0,-294 6,-288 12,-288 12,-288 87,-288 87,-288 93,-288 99,-294 99,-300 99,-300 99,-312 99,-312 99,-318 93,-324 87,-324"/>
<text text-anchor="middle" x="49.5" y="-303.5" font-family="sans" font-size="10.00">fit_single_cluster</text>
</g>
<!-- 3&#45;&gt;2 -->
<g id="edge5" class="edge">
<title>3&#45;&gt;2</title>
<path fill="none" stroke="grey" stroke-width="2" d="M56.17,-287.7C59.21,-279.81 62.88,-270.3 66.26,-261.55"/>
<polygon fill="grey" stroke="grey" stroke-width="2" points="69.57,-262.69 69.9,-252.1 63.04,-260.17 69.57,-262.69"/>
</g>
<!-- 4 -->
<g id="node5" class="node">
<title>4</title>
<path fill="none" stroke="#56d873" stroke-width="2" d="M281.5,-324C281.5,-324 129.5,-324 129.5,-324 123.5,-324 117.5,-318 117.5,-312 117.5,-312 117.5,-300 117.5,-300 117.5,-294 123.5,-288 129.5,-288 129.5,-288 281.5,-288 281.5,-288 287.5,-288 293.5,-294 293.5,-300 293.5,-300 293.5,-312 293.5,-312 293.5,-318 287.5,-324 281.5,-324"/>
<text text-anchor="middle" x="205.5" y="-303.5" font-family="sans" font-size="10.00">align_consensus_read_to_library</text>
</g>
<!-- 4&#45;&gt;1 -->
<g id="edge4" class="edge">
<title>4&#45;&gt;1</title>
<path fill="none" stroke="grey" stroke-width="2" d="M207.95,-287.96C211.51,-256.79 214.93,-189.63 186.5,-144 178.63,-131.38 166.53,-121.18 154.01,-113.23"/>
<polygon fill="grey" stroke="grey" stroke-width="2" points="155.71,-110.17 145.32,-108.08 152.14,-116.19 155.71,-110.17"/>
</g>
<!-- 4&#45;&gt;2 -->
<g id="edge6" class="edge">
<title>4&#45;&gt;2</title>
<path fill="none" stroke="grey" stroke-width="2" d="M173.94,-287.88C156.84,-278.6 135.52,-267.03 117.18,-257.08"/>
<polygon fill="grey" stroke="grey" stroke-width="2" points="118.64,-253.88 108.18,-252.19 115.3,-260.04 118.64,-253.88"/>
</g>
<!-- 5 -->
<g id="node6" class="node">
<title>5</title>
<path fill="none" stroke="#56d8d8" stroke-width="2" stroke-dasharray="5,2" d="M264,-396C264,-396 147,-396 147,-396 141,-396 135,-390 135,-384 135,-384 135,-372 135,-372 135,-366 141,-360 147,-360 147,-360 264,-360 264,-360 270,-360 276,-366 276,-372 276,-372 276,-384 276,-384 276,-390 270,-396 264,-396"/>
<text text-anchor="middle" x="205.5" y="-375.5" font-family="sans" font-size="10.00">convert_FLASH_to_CPseq</text>
</g>
<!-- 5&#45;&gt;4 -->
<g id="edge7" class="edge">
<title>5&#45;&gt;4</title>
<path fill="none" stroke="grey" stroke-width="2" d="M205.5,-359.7C205.5,-351.98 205.5,-342.71 205.5,-334.11"/>
<polygon fill="grey" stroke="grey" stroke-width="2" points="209,-334.1 205.5,-324.1 202,-334.1 209,-334.1"/>
</g>
<!-- 6 -->
<g id="node7" class="node">
<title>6</title>
<path fill="none" stroke="#56c1d8" stroke-width="2" stroke-dasharray="5,2" d="M228.5,-468C228.5,-468 182.5,-468 182.5,-468 176.5,-468 170.5,-462 170.5,-456 170.5,-456 170.5,-444 170.5,-444 170.5,-438 176.5,-432 182.5,-432 182.5,-432 228.5,-432 228.5,-432 234.5,-432 240.5,-438 240.5,-444 240.5,-444 240.5,-456 240.5,-456 240.5,-462 234.5,-468 228.5,-468"/>
<text text-anchor="middle" x="205.5" y="-447.5" font-family="sans" font-size="10.00">run_FLASH</text>
</g>
<!-- 6&#45;&gt;5 -->
<g id="edge8" class="edge">
<title>6&#45;&gt;5</title>
<path fill="none" stroke="grey" stroke-width="2" d="M205.5,-431.7C205.5,-423.98 205.5,-414.71 205.5,-406.11"/>
<polygon fill="grey" stroke="grey" stroke-width="2" points="209,-406.1 205.5,-396.1 202,-406.1 209,-406.1"/>
</g>
<!-- 7&#45;&gt;1 -->
<g id="edge3" class="edge">
<title>7&#45;&gt;1</title>
<path fill="none" stroke="grey" stroke-width="2" d="M104.5,-143.7C104.5,-135.98 104.5,-126.71 104.5,-118.11"/>
<polygon fill="grey" stroke="grey" stroke-width="2" points="108,-118.1 104.5,-108.1 101,-118.1 108,-118.1"/>
</g>
</g>
</svg>
