<?xml version="1.0" encoding="UTF-8" standalone="no"?>
<!DOCTYPE svg PUBLIC "-//W3C//DTD SVG 1.1//EN"
 "http://www.w3.org/Graphics/SVG/1.1/DTD/svg11.dtd">
<!-- Generated by graphviz version 2.49.1 (20211004.0028)
 -->
<!-- Title: snakemake_dag Pages: 1 -->
<svg width="4822pt" height="863pt"
 viewBox="0.00 0.00 4821.50 863.00" xmlns="http://www.w3.org/2000/svg" xmlns:xlink="http://www.w3.org/1999/xlink">
<g id="graph0" class="graph" transform="scale(1 1) rotate(0) translate(4 859)">
<title>snakemake_dag</title>
<polygon fill="white" stroke="transparent" points="-4,4 -4,-859 4817.5,-859 4817.5,4 -4,4"/>
<!-- 0 -->
<g id="node1" class="node">
<title>0</title>
<path fill="none" stroke="#59d856" stroke-width="2" d="M4588.5,-36C4588.5,-36 4558.5,-36 4558.5,-36 4552.5,-36 4546.5,-30 4546.5,-24 4546.5,-24 4546.5,-12 4546.5,-12 4546.5,-6 4552.5,0 4558.5,0 4558.5,0 4588.5,0 4588.5,0 4594.5,0 4600.5,-6 4600.5,-12 4600.5,-12 4600.5,-24 4600.5,-24 4600.5,-30 4594.5,-36 4588.5,-36"/>
<text text-anchor="middle" x="4573.5" y="-15.5" font-family="sans" font-size="10.00">all</text>
</g>
<!-- 1 -->
<g id="node2" class="node">
<title>1</title>
<path fill="none" stroke="#56c1d8" stroke-width="2" d="M4611,-108C4611,-108 4536,-108 4536,-108 4530,-108 4524,-102 4524,-96 4524,-96 4524,-84 4524,-84 4524,-78 4530,-72 4536,-72 4536,-72 4611,-72 4611,-72 4617,-72 4623,-78 4623,-84 4623,-84 4623,-96 4623,-96 4623,-102 4617,-108 4611,-108"/>
<text text-anchor="middle" x="4573.5" y="-87.5" font-family="sans" font-size="10.00">fit_refine_variant</text>
</g>
<!-- 1&#45;&gt;0 -->
<g id="edge1" class="edge">
<title>1&#45;&gt;0</title>
<path fill="none" stroke="grey" stroke-width="2" d="M4573.5,-71.7C4573.5,-63.98 4573.5,-54.71 4573.5,-46.11"/>
<polygon fill="grey" stroke="grey" stroke-width="2" points="4577,-46.1 4573.5,-36.1 4570,-46.1 4577,-46.1"/>
</g>
<!-- 2 -->
<g id="node3" class="node">
<title>2</title>
<path fill="none" stroke="#a7d856" stroke-width="2" d="M4523.5,-396C4523.5,-396 4447.5,-396 4447.5,-396 4441.5,-396 4435.5,-390 4435.5,-384 4435.5,-384 4435.5,-372 4435.5,-372 4435.5,-366 4441.5,-360 4447.5,-360 4447.5,-360 4523.5,-360 4523.5,-360 4529.5,-360 4535.5,-366 4535.5,-372 4535.5,-372 4535.5,-384 4535.5,-384 4535.5,-390 4529.5,-396 4523.5,-396"/>
<text text-anchor="middle" x="4485.5" y="-375.5" font-family="sans" font-size="10.00">normalize_signal</text>
</g>
<!-- 2&#45;&gt;1 -->
<g id="edge2" class="edge">
<title>2&#45;&gt;1</title>
<path fill="none" stroke="grey" stroke-width="2" d="M4486.61,-359.86C4489.71,-320.22 4500.56,-219.84 4534.5,-144 4538.84,-134.3 4545.17,-124.66 4551.48,-116.3"/>
<polygon fill="grey" stroke="grey" stroke-width="2" points="4554.25,-118.45 4557.7,-108.43 4548.76,-114.11 4554.25,-118.45"/>
</g>
<!-- 34 -->
<g id="node35" class="node">
<title>34</title>
<path fill="none" stroke="#88d856" stroke-width="2" d="M4613,-324C4613,-324 4538,-324 4538,-324 4532,-324 4526,-318 4526,-312 4526,-312 4526,-300 4526,-300 4526,-294 4532,-288 4538,-288 4538,-288 4613,-288 4613,-288 4619,-288 4625,-294 4625,-300 4625,-300 4625,-312 4625,-312 4625,-318 4619,-324 4613,-324"/>
<text text-anchor="middle" x="4575.5" y="-303.5" font-family="sans" font-size="10.00">fit_single_cluster</text>
</g>
<!-- 2&#45;&gt;34 -->
<g id="edge58" class="edge">
<title>2&#45;&gt;34</title>
<path fill="none" stroke="grey" stroke-width="2" d="M4507.75,-359.7C4519.08,-350.88 4533.03,-340.03 4545.32,-330.47"/>
<polygon fill="grey" stroke="grey" stroke-width="2" points="4547.76,-333.01 4553.51,-324.1 4543.47,-327.48 4547.76,-333.01"/>
</g>
<!-- 3 -->
<g id="node4" class="node">
<title>3</title>
<path fill="none" stroke="#568ad8" stroke-width="2" d="M3517.5,-468C3517.5,-468 3431.5,-468 3431.5,-468 3425.5,-468 3419.5,-462 3419.5,-456 3419.5,-456 3419.5,-444 3419.5,-444 3419.5,-438 3425.5,-432 3431.5,-432 3431.5,-432 3517.5,-432 3517.5,-432 3523.5,-432 3529.5,-438 3529.5,-444 3529.5,-444 3529.5,-456 3529.5,-456 3529.5,-462 3523.5,-468 3517.5,-468"/>
<text text-anchor="middle" x="3474.5" y="-447.5" font-family="sans" font-size="10.00">concat_tiles_signal</text>
</g>
<!-- 3&#45;&gt;2 -->
<g id="edge6" class="edge">
<title>3&#45;&gt;2</title>
<path fill="none" stroke="grey" stroke-width="2" d="M3529.57,-445.19C3703.99,-433.11 4243.37,-395.76 4425.05,-383.19"/>
<polygon fill="grey" stroke="grey" stroke-width="2" points="4425.49,-386.66 4435.22,-382.48 4425.01,-379.68 4425.49,-386.66"/>
</g>
<!-- 4 -->
<g id="node5" class="node">
<title>4</title>
<path fill="none" stroke="#56d8d8" stroke-width="2" d="M2605,-540C2605,-540 2536,-540 2536,-540 2530,-540 2524,-534 2524,-528 2524,-528 2524,-516 2524,-516 2524,-510 2530,-504 2536,-504 2536,-504 2605,-504 2605,-504 2611,-504 2617,-510 2617,-516 2617,-516 2617,-528 2617,-528 2617,-534 2611,-540 2605,-540"/>
<text text-anchor="middle" x="2570.5" y="-519.5" font-family="sans" font-size="10.00">combine_signal</text>
</g>
<!-- 4&#45;&gt;3 -->
<g id="edge7" class="edge">
<title>4&#45;&gt;3</title>
<path fill="none" stroke="grey" stroke-width="2" d="M2617.2,-517.38C2767.06,-505.78 3236.14,-469.46 3409.37,-456.04"/>
<polygon fill="grey" stroke="grey" stroke-width="2" points="3409.66,-459.53 3419.36,-455.27 3409.12,-452.55 3409.66,-459.53"/>
</g>
<!-- 5 -->
<g id="node6" class="node">
<title>5</title>
<path fill="none" stroke="#70d856" stroke-width="2" stroke-dasharray="5,2" d="M4270,-639C4270,-639 4097,-639 4097,-639 4091,-639 4085,-633 4085,-627 4085,-627 4085,-588 4085,-588 4085,-582 4091,-576 4097,-576 4097,-576 4270,-576 4270,-576 4276,-576 4282,-582 4282,-588 4282,-588 4282,-627 4282,-627 4282,-633 4276,-639 4270,-639"/>
<text text-anchor="middle" x="4183.5" y="-627" font-family="sans" font-size="10.00">quantify_images</text>
<text text-anchor="middle" x="4183.5" y="-616" font-family="sans" font-size="10.00">channel: 2</text>
<text text-anchor="middle" x="4183.5" y="-605" font-family="sans" font-size="10.00">condition: Green07_Cy3</text>
<text text-anchor="middle" x="4183.5" y="-594" font-family="sans" font-size="10.00">tile: DNA_tile17_focused_green</text>
<text text-anchor="middle" x="4183.5" y="-583" font-family="sans" font-size="10.00">timestamp: 2011.12.23&#45;15.04.50.484</text>
</g>
<!-- 5&#45;&gt;4 -->
<g id="edge8" class="edge">
<title>5&#45;&gt;4</title>
<path fill="none" stroke="grey" stroke-width="2" d="M4084.83,-577.61C4081.7,-577.02 4078.58,-576.48 4075.5,-576 3788.53,-531.09 2865.93,-524.21 2627.28,-523.18"/>
<polygon fill="grey" stroke="grey" stroke-width="2" points="2627.11,-519.68 2617.1,-523.14 2627.08,-526.68 2627.11,-519.68"/>
</g>
<!-- 6 -->
<g id="node7" class="node">
<title>6</title>
<path fill="none" stroke="#56d8a2" stroke-width="2" stroke-dasharray="5,2" d="M2293,-711C2293,-711 2204,-711 2204,-711 2198,-711 2192,-705 2192,-699 2192,-699 2192,-687 2192,-687 2192,-681 2198,-675 2204,-675 2204,-675 2293,-675 2293,-675 2299,-675 2305,-681 2305,-687 2305,-687 2305,-699 2305,-699 2305,-705 2299,-711 2293,-711"/>
<text text-anchor="middle" x="2248.5" y="-690.5" font-family="sans" font-size="10.00">filter_tiles_libregion</text>
</g>
<!-- 6&#45;&gt;5 -->
<g id="edge31" class="edge">
<title>6&#45;&gt;5</title>
<path fill="none" stroke="grey" stroke-width="2" d="M2305.06,-692.23C2571.21,-693.03 3701.18,-693.21 4074.81,-638.91"/>
<polygon fill="grey" stroke="grey" stroke-width="2" points="4075.46,-642.35 4084.84,-637.41 4074.43,-635.43 4075.46,-642.35"/>
</g>
<!-- 9 -->
<g id="node10" class="node">
<title>9</title>
<path fill="none" stroke="#70d856" stroke-width="2" stroke-dasharray="5,2" d="M4485,-639C4485,-639 4312,-639 4312,-639 4306,-639 4300,-633 4300,-627 4300,-627 4300,-588 4300,-588 4300,-582 4306,-576 4312,-576 4312,-576 4485,-576 4485,-576 4491,-576 4497,-582 4497,-588 4497,-588 4497,-627 4497,-627 4497,-633 4491,-639 4485,-639"/>
<text text-anchor="middle" x="4398.5" y="-627" font-family="sans" font-size="10.00">quantify_images</text>
<text text-anchor="middle" x="4398.5" y="-616" font-family="sans" font-size="10.00">channel: 2</text>
<text text-anchor="middle" x="4398.5" y="-605" font-family="sans" font-size="10.00">condition: Green08_Cy3</text>
<text text-anchor="middle" x="4398.5" y="-594" font-family="sans" font-size="10.00">tile: DNA_tile10_focused_green</text>
<text text-anchor="middle" x="4398.5" y="-583" font-family="sans" font-size="10.00">timestamp: 2011.12.23&#45;15.12.16.328</text>
</g>
<!-- 6&#45;&gt;9 -->
<g id="edge34" class="edge">
<title>6&#45;&gt;9</title>
<path fill="none" stroke="grey" stroke-width="2" d="M2305.15,-691.37C2609.65,-687.89 4046.79,-669.99 4289.8,-638.82"/>
<polygon fill="grey" stroke="grey" stroke-width="2" points="4290.42,-642.27 4299.84,-637.42 4289.45,-635.34 4290.42,-642.27"/>
</g>
<!-- 10 -->
<g id="node11" class="node">
<title>10</title>
<path fill="none" stroke="#70d856" stroke-width="2" stroke-dasharray="5,2" d="M185,-639C185,-639 12,-639 12,-639 6,-639 0,-633 0,-627 0,-627 0,-588 0,-588 0,-582 6,-576 12,-576 12,-576 185,-576 185,-576 191,-576 197,-582 197,-588 197,-588 197,-627 197,-627 197,-633 191,-639 185,-639"/>
<text text-anchor="middle" x="98.5" y="-627" font-family="sans" font-size="10.00">quantify_images</text>
<text text-anchor="middle" x="98.5" y="-616" font-family="sans" font-size="10.00">channel: 2</text>
<text text-anchor="middle" x="98.5" y="-605" font-family="sans" font-size="10.00">condition: Green09_Quench</text>
<text text-anchor="middle" x="98.5" y="-594" font-family="sans" font-size="10.00">tile: DNA_tile14_focused_green</text>
<text text-anchor="middle" x="98.5" y="-583" font-family="sans" font-size="10.00">timestamp: 2011.12.23&#45;15.34.10.046</text>
</g>
<!-- 6&#45;&gt;10 -->
<g id="edge35" class="edge">
<title>6&#45;&gt;10</title>
<path fill="none" stroke="grey" stroke-width="2" d="M2191.82,-691.38C1887.16,-687.94 449.29,-670.25 207.12,-638.99"/>
<polygon fill="grey" stroke="grey" stroke-width="2" points="207.51,-635.51 197.12,-637.59 206.53,-642.44 207.51,-635.51"/>
</g>
<!-- 11 -->
<g id="node12" class="node">
<title>11</title>
<path fill="none" stroke="#70d856" stroke-width="2" stroke-dasharray="5,2" d="M400,-639C400,-639 227,-639 227,-639 221,-639 215,-633 215,-627 215,-627 215,-588 215,-588 215,-582 221,-576 227,-576 227,-576 400,-576 400,-576 406,-576 412,-582 412,-588 412,-588 412,-627 412,-627 412,-633 406,-639 400,-639"/>
<text text-anchor="middle" x="313.5" y="-627" font-family="sans" font-size="10.00">quantify_images</text>
<text text-anchor="middle" x="313.5" y="-616" font-family="sans" font-size="10.00">channel: green</text>
<text text-anchor="middle" x="313.5" y="-605" font-family="sans" font-size="10.00">condition: Green10_20</text>
<text text-anchor="middle" x="313.5" y="-594" font-family="sans" font-size="10.00">tile: DNA_tile5</text>
<text text-anchor="middle" x="313.5" y="-583" font-family="sans" font-size="10.00">timestamp: 2011.12.23&#45;15.59.43.468</text>
</g>
<!-- 6&#45;&gt;11 -->
<g id="edge36" class="edge">
<title>6&#45;&gt;11</title>
<path fill="none" stroke="grey" stroke-width="2" d="M2191.91,-692.25C1925.59,-693.14 794.96,-693.67 422.12,-639.08"/>
<polygon fill="grey" stroke="grey" stroke-width="2" points="422.53,-635.6 412.12,-637.58 421.49,-642.53 422.53,-635.6"/>
</g>
<!-- 12 -->
<g id="node13" class="node">
<title>12</title>
<path fill="none" stroke="#70d856" stroke-width="2" d="M615,-639C615,-639 442,-639 442,-639 436,-639 430,-633 430,-627 430,-627 430,-588 430,-588 430,-582 436,-576 442,-576 442,-576 615,-576 615,-576 621,-576 627,-582 627,-588 627,-588 627,-627 627,-627 627,-633 621,-639 615,-639"/>
<text text-anchor="middle" x="528.5" y="-627" font-family="sans" font-size="10.00">quantify_images</text>
<text text-anchor="middle" x="528.5" y="-616" font-family="sans" font-size="10.00">channel: green</text>
<text text-anchor="middle" x="528.5" y="-605" font-family="sans" font-size="10.00">condition: Green11_60</text>
<text text-anchor="middle" x="528.5" y="-594" font-family="sans" font-size="10.00">tile: DNA_tile1</text>
<text text-anchor="middle" x="528.5" y="-583" font-family="sans" font-size="10.00">timestamp: 2011.12.23&#45;16.26.13.562</text>
</g>
<!-- 6&#45;&gt;12 -->
<g id="edge37" class="edge">
<title>6&#45;&gt;12</title>
<path fill="none" stroke="grey" stroke-width="2" d="M2191.65,-691.99C1944.93,-691.69 965.05,-687.48 637.1,-639.08"/>
<polygon fill="grey" stroke="grey" stroke-width="2" points="637.53,-635.61 627.12,-637.56 636.48,-642.53 637.53,-635.61"/>
</g>
<!-- 13 -->
<g id="node14" class="node">
<title>13</title>
<path fill="none" stroke="#70d856" stroke-width="2" stroke-dasharray="5,2" d="M830,-639C830,-639 657,-639 657,-639 651,-639 645,-633 645,-627 645,-627 645,-588 645,-588 645,-582 651,-576 657,-576 657,-576 830,-576 830,-576 836,-576 842,-582 842,-588 842,-588 842,-627 842,-627 842,-633 836,-639 830,-639"/>
<text text-anchor="middle" x="743.5" y="-627" font-family="sans" font-size="10.00">quantify_images</text>
<text text-anchor="middle" x="743.5" y="-616" font-family="sans" font-size="10.00">channel: green</text>
<text text-anchor="middle" x="743.5" y="-605" font-family="sans" font-size="10.00">condition: Green12_57.5</text>
<text text-anchor="middle" x="743.5" y="-594" font-family="sans" font-size="10.00">tile: DNA_tile3</text>
<text text-anchor="middle" x="743.5" y="-583" font-family="sans" font-size="10.00">timestamp: 2011.12.23&#45;16.31.23.328</text>
</g>
<!-- 6&#45;&gt;13 -->
<g id="edge38" class="edge">
<title>6&#45;&gt;13</title>
<path fill="none" stroke="grey" stroke-width="2" d="M2191.73,-691.66C1966.66,-690.04 1136.02,-681.36 852.39,-639.12"/>
<polygon fill="grey" stroke="grey" stroke-width="2" points="852.54,-635.61 842.12,-637.54 851.47,-642.52 852.54,-635.61"/>
</g>
<!-- 14 -->
<g id="node15" class="node">
<title>14</title>
<path fill="none" stroke="#70d856" stroke-width="2" stroke-dasharray="5,2" d="M1045,-639C1045,-639 872,-639 872,-639 866,-639 860,-633 860,-627 860,-627 860,-588 860,-588 860,-582 866,-576 872,-576 872,-576 1045,-576 1045,-576 1051,-576 1057,-582 1057,-588 1057,-588 1057,-627 1057,-627 1057,-633 1051,-639 1045,-639"/>
<text text-anchor="middle" x="958.5" y="-627" font-family="sans" font-size="10.00">quantify_images</text>
<text text-anchor="middle" x="958.5" y="-616" font-family="sans" font-size="10.00">channel: green</text>
<text text-anchor="middle" x="958.5" y="-605" font-family="sans" font-size="10.00">condition: Green13_55</text>
<text text-anchor="middle" x="958.5" y="-594" font-family="sans" font-size="10.00">tile: DNA_tile3</text>
<text text-anchor="middle" x="958.5" y="-583" font-family="sans" font-size="10.00">timestamp: 2011.12.23&#45;16.36.11.125</text>
</g>
<!-- 6&#45;&gt;14 -->
<g id="edge39" class="edge">
<title>6&#45;&gt;14</title>
<path fill="none" stroke="grey" stroke-width="2" d="M2191.96,-691.21C1990.31,-688.13 1306.18,-675.3 1067.15,-639.09"/>
<polygon fill="grey" stroke="grey" stroke-width="2" points="1067.55,-635.61 1057.13,-637.52 1066.46,-642.53 1067.55,-635.61"/>
</g>
<!-- 15 -->
<g id="node16" class="node">
<title>15</title>
<path fill="none" stroke="#70d856" stroke-width="2" stroke-dasharray="5,2" d="M1260,-639C1260,-639 1087,-639 1087,-639 1081,-639 1075,-633 1075,-627 1075,-627 1075,-588 1075,-588 1075,-582 1081,-576 1087,-576 1087,-576 1260,-576 1260,-576 1266,-576 1272,-582 1272,-588 1272,-588 1272,-627 1272,-627 1272,-633 1266,-639 1260,-639"/>
<text text-anchor="middle" x="1173.5" y="-627" font-family="sans" font-size="10.00">quantify_images</text>
<text text-anchor="middle" x="1173.5" y="-616" font-family="sans" font-size="10.00">channel: green</text>
<text text-anchor="middle" x="1173.5" y="-605" font-family="sans" font-size="10.00">condition: Green14_52.5</text>
<text text-anchor="middle" x="1173.5" y="-594" font-family="sans" font-size="10.00">tile: DNA_tile1</text>
<text text-anchor="middle" x="1173.5" y="-583" font-family="sans" font-size="10.00">timestamp: 2011.12.23&#45;16.40.31.421</text>
</g>
<!-- 6&#45;&gt;15 -->
<g id="edge40" class="edge">
<title>6&#45;&gt;15</title>
<path fill="none" stroke="grey" stroke-width="2" d="M2191.97,-690.56C2015.76,-685.82 1477.09,-669.32 1282.26,-639.11"/>
<polygon fill="grey" stroke="grey" stroke-width="2" points="1282.56,-635.62 1272.13,-637.48 1281.45,-642.53 1282.56,-635.62"/>
</g>
<!-- 16 -->
<g id="node17" class="node">
<title>16</title>
<path fill="none" stroke="#70d856" stroke-width="2" stroke-dasharray="5,2" d="M1475,-639C1475,-639 1302,-639 1302,-639 1296,-639 1290,-633 1290,-627 1290,-627 1290,-588 1290,-588 1290,-582 1296,-576 1302,-576 1302,-576 1475,-576 1475,-576 1481,-576 1487,-582 1487,-588 1487,-588 1487,-627 1487,-627 1487,-633 1481,-639 1475,-639"/>
<text text-anchor="middle" x="1388.5" y="-627" font-family="sans" font-size="10.00">quantify_images</text>
<text text-anchor="middle" x="1388.5" y="-616" font-family="sans" font-size="10.00">channel: green</text>
<text text-anchor="middle" x="1388.5" y="-605" font-family="sans" font-size="10.00">condition: Green15_50</text>
<text text-anchor="middle" x="1388.5" y="-594" font-family="sans" font-size="10.00">tile: DNA_tile8</text>
<text text-anchor="middle" x="1388.5" y="-583" font-family="sans" font-size="10.00">timestamp: 2011.12.23&#45;16.45.37.140</text>
</g>
<!-- 6&#45;&gt;16 -->
<g id="edge41" class="edge">
<title>6&#45;&gt;16</title>
<path fill="none" stroke="grey" stroke-width="2" d="M2191.81,-692C2067.28,-691.16 1760.6,-684.38 1497.28,-639.19"/>
<polygon fill="grey" stroke="grey" stroke-width="2" points="1497.6,-635.69 1487.14,-637.42 1496.4,-642.58 1497.6,-635.69"/>
</g>
<!-- 17 -->
<g id="node18" class="node">
<title>17</title>
<path fill="none" stroke="#70d856" stroke-width="2" stroke-dasharray="5,2" d="M1690,-639C1690,-639 1517,-639 1517,-639 1511,-639 1505,-633 1505,-627 1505,-627 1505,-588 1505,-588 1505,-582 1511,-576 1517,-576 1517,-576 1690,-576 1690,-576 1696,-576 1702,-582 1702,-588 1702,-588 1702,-627 1702,-627 1702,-633 1696,-639 1690,-639"/>
<text text-anchor="middle" x="1603.5" y="-627" font-family="sans" font-size="10.00">quantify_images</text>
<text text-anchor="middle" x="1603.5" y="-616" font-family="sans" font-size="10.00">channel: green</text>
<text text-anchor="middle" x="1603.5" y="-605" font-family="sans" font-size="10.00">condition: Green16_47.5</text>
<text text-anchor="middle" x="1603.5" y="-594" font-family="sans" font-size="10.00">tile: DNA_tile16</text>
<text text-anchor="middle" x="1603.5" y="-583" font-family="sans" font-size="10.00">timestamp: 2011.12.23&#45;16.50.38.062</text>
</g>
<!-- 6&#45;&gt;17 -->
<g id="edge42" class="edge">
<title>6&#45;&gt;17</title>
<path fill="none" stroke="grey" stroke-width="2" d="M2191.87,-689.76C2095.07,-685.22 1891.59,-672.48 1712.05,-639.18"/>
<polygon fill="grey" stroke="grey" stroke-width="2" points="1712.64,-635.73 1702.16,-637.32 1711.34,-642.61 1712.64,-635.73"/>
</g>
<!-- 18 -->
<g id="node19" class="node">
<title>18</title>
<path fill="none" stroke="#70d856" stroke-width="2" stroke-dasharray="5,2" d="M1905,-639C1905,-639 1732,-639 1732,-639 1726,-639 1720,-633 1720,-627 1720,-627 1720,-588 1720,-588 1720,-582 1726,-576 1732,-576 1732,-576 1905,-576 1905,-576 1911,-576 1917,-582 1917,-588 1917,-588 1917,-627 1917,-627 1917,-633 1911,-639 1905,-639"/>
<text text-anchor="middle" x="1818.5" y="-627" font-family="sans" font-size="10.00">quantify_images</text>
<text text-anchor="middle" x="1818.5" y="-616" font-family="sans" font-size="10.00">channel: green</text>
<text text-anchor="middle" x="1818.5" y="-605" font-family="sans" font-size="10.00">condition: Green17_45</text>
<text text-anchor="middle" x="1818.5" y="-594" font-family="sans" font-size="10.00">tile: DNA_tile10</text>
<text text-anchor="middle" x="1818.5" y="-583" font-family="sans" font-size="10.00">timestamp: 2011.12.23&#45;16.54.16.718</text>
</g>
<!-- 6&#45;&gt;18 -->
<g id="edge43" class="edge">
<title>6&#45;&gt;18</title>
<path fill="none" stroke="grey" stroke-width="2" d="M2191.81,-684.71C2129.11,-676.2 2024.95,-660.73 1926.98,-639.25"/>
<polygon fill="grey" stroke="grey" stroke-width="2" points="1927.73,-635.83 1917.21,-637.08 1926.22,-642.67 1927.73,-635.83"/>
</g>
<!-- 19 -->
<g id="node20" class="node">
<title>19</title>
<path fill="none" stroke="#70d856" stroke-width="2" stroke-dasharray="5,2" d="M2120,-639C2120,-639 1947,-639 1947,-639 1941,-639 1935,-633 1935,-627 1935,-627 1935,-588 1935,-588 1935,-582 1941,-576 1947,-576 1947,-576 2120,-576 2120,-576 2126,-576 2132,-582 2132,-588 2132,-588 2132,-627 2132,-627 2132,-633 2126,-639 2120,-639"/>
<text text-anchor="middle" x="2033.5" y="-627" font-family="sans" font-size="10.00">quantify_images</text>
<text text-anchor="middle" x="2033.5" y="-616" font-family="sans" font-size="10.00">channel: green</text>
<text text-anchor="middle" x="2033.5" y="-605" font-family="sans" font-size="10.00">condition: Green18_42.5</text>
<text text-anchor="middle" x="2033.5" y="-594" font-family="sans" font-size="10.00">tile: DNA_tile11</text>
<text text-anchor="middle" x="2033.5" y="-583" font-family="sans" font-size="10.00">timestamp: 2011.12.23&#45;16.58.25.562</text>
</g>
<!-- 6&#45;&gt;19 -->
<g id="edge44" class="edge">
<title>6&#45;&gt;19</title>
<path fill="none" stroke="grey" stroke-width="2" d="M2204.47,-674.9C2180.63,-665.64 2150.3,-653.86 2121.83,-642.8"/>
<polygon fill="grey" stroke="grey" stroke-width="2" points="2122.84,-639.44 2112.25,-639.08 2120.31,-645.97 2122.84,-639.44"/>
</g>
<!-- 20 -->
<g id="node21" class="node">
<title>20</title>
<path fill="none" stroke="#70d856" stroke-width="2" stroke-dasharray="5,2" d="M2335,-639C2335,-639 2162,-639 2162,-639 2156,-639 2150,-633 2150,-627 2150,-627 2150,-588 2150,-588 2150,-582 2156,-576 2162,-576 2162,-576 2335,-576 2335,-576 2341,-576 2347,-582 2347,-588 2347,-588 2347,-627 2347,-627 2347,-633 2341,-639 2335,-639"/>
<text text-anchor="middle" x="2248.5" y="-627" font-family="sans" font-size="10.00">quantify_images</text>
<text text-anchor="middle" x="2248.5" y="-616" font-family="sans" font-size="10.00">channel: green</text>
<text text-anchor="middle" x="2248.5" y="-605" font-family="sans" font-size="10.00">condition: Green19_40</text>
<text text-anchor="middle" x="2248.5" y="-594" font-family="sans" font-size="10.00">tile: DNA_tile1</text>
<text text-anchor="middle" x="2248.5" y="-583" font-family="sans" font-size="10.00">timestamp: 2011.12.23&#45;17.01.34.796</text>
</g>
<!-- 6&#45;&gt;20 -->
<g id="edge45" class="edge">
<title>6&#45;&gt;20</title>
<path fill="none" stroke="grey" stroke-width="2" d="M2248.5,-674.7C2248.5,-667.27 2248.5,-658.25 2248.5,-649.29"/>
<polygon fill="grey" stroke="grey" stroke-width="2" points="2252,-649.28 2248.5,-639.28 2245,-649.28 2252,-649.28"/>
</g>
<!-- 21 -->
<g id="node22" class="node">
<title>21</title>
<path fill="none" stroke="#70d856" stroke-width="2" stroke-dasharray="5,2" d="M2550,-639C2550,-639 2377,-639 2377,-639 2371,-639 2365,-633 2365,-627 2365,-627 2365,-588 2365,-588 2365,-582 2371,-576 2377,-576 2377,-576 2550,-576 2550,-576 2556,-576 2562,-582 2562,-588 2562,-588 2562,-627 2562,-627 2562,-633 2556,-639 2550,-639"/>
<text text-anchor="middle" x="2463.5" y="-627" font-family="sans" font-size="10.00">quantify_images</text>
<text text-anchor="middle" x="2463.5" y="-616" font-family="sans" font-size="10.00">channel: green</text>
<text text-anchor="middle" x="2463.5" y="-605" font-family="sans" font-size="10.00">condition: Green20_37.5</text>
<text text-anchor="middle" x="2463.5" y="-594" font-family="sans" font-size="10.00">tile: DNA_tile16</text>
<text text-anchor="middle" x="2463.5" y="-583" font-family="sans" font-size="10.00">timestamp: 2011.12.23&#45;17.06.57.593</text>
</g>
<!-- 6&#45;&gt;21 -->
<g id="edge46" class="edge">
<title>6&#45;&gt;21</title>
<path fill="none" stroke="grey" stroke-width="2" d="M2292.53,-674.9C2316.37,-665.64 2346.7,-653.86 2375.17,-642.8"/>
<polygon fill="grey" stroke="grey" stroke-width="2" points="2376.69,-645.97 2384.75,-639.08 2374.16,-639.44 2376.69,-645.97"/>
</g>
<!-- 22 -->
<g id="node23" class="node">
<title>22</title>
<path fill="none" stroke="#70d856" stroke-width="2" stroke-dasharray="5,2" d="M2765,-639C2765,-639 2592,-639 2592,-639 2586,-639 2580,-633 2580,-627 2580,-627 2580,-588 2580,-588 2580,-582 2586,-576 2592,-576 2592,-576 2765,-576 2765,-576 2771,-576 2777,-582 2777,-588 2777,-588 2777,-627 2777,-627 2777,-633 2771,-639 2765,-639"/>
<text text-anchor="middle" x="2678.5" y="-627" font-family="sans" font-size="10.00">quantify_images</text>
<text text-anchor="middle" x="2678.5" y="-616" font-family="sans" font-size="10.00">channel: green</text>
<text text-anchor="middle" x="2678.5" y="-605" font-family="sans" font-size="10.00">condition: Green21_35</text>
<text text-anchor="middle" x="2678.5" y="-594" font-family="sans" font-size="10.00">tile: DNA_tile1</text>
<text text-anchor="middle" x="2678.5" y="-583" font-family="sans" font-size="10.00">timestamp: 2011.12.23&#45;17.09.27.515</text>
</g>
<!-- 6&#45;&gt;22 -->
<g id="edge47" class="edge">
<title>6&#45;&gt;22</title>
<path fill="none" stroke="grey" stroke-width="2" d="M2305.29,-684.62C2367.83,-676.05 2471.48,-660.55 2569.92,-639.04"/>
<polygon fill="grey" stroke="grey" stroke-width="2" points="2570.73,-642.45 2579.74,-636.87 2569.22,-635.61 2570.73,-642.45"/>
</g>
<!-- 23 -->
<g id="node24" class="node">
<title>23</title>
<path fill="none" stroke="#70d856" stroke-width="2" stroke-dasharray="5,2" d="M2980,-639C2980,-639 2807,-639 2807,-639 2801,-639 2795,-633 2795,-627 2795,-627 2795,-588 2795,-588 2795,-582 2801,-576 2807,-576 2807,-576 2980,-576 2980,-576 2986,-576 2992,-582 2992,-588 2992,-588 2992,-627 2992,-627 2992,-633 2986,-639 2980,-639"/>
<text text-anchor="middle" x="2893.5" y="-627" font-family="sans" font-size="10.00">quantify_images</text>
<text text-anchor="middle" x="2893.5" y="-616" font-family="sans" font-size="10.00">channel: green</text>
<text text-anchor="middle" x="2893.5" y="-605" font-family="sans" font-size="10.00">condition: Green22_32.5</text>
<text text-anchor="middle" x="2893.5" y="-594" font-family="sans" font-size="10.00">tile: DNA_tile14</text>
<text text-anchor="middle" x="2893.5" y="-583" font-family="sans" font-size="10.00">timestamp: 2011.12.23&#45;17.14.32.484</text>
</g>
<!-- 6&#45;&gt;23 -->
<g id="edge48" class="edge">
<title>6&#45;&gt;23</title>
<path fill="none" stroke="grey" stroke-width="2" d="M2305.01,-689.71C2401.62,-685.08 2604.7,-672.23 2784.87,-638.99"/>
<polygon fill="grey" stroke="grey" stroke-width="2" points="2785.6,-642.41 2794.79,-637.13 2784.32,-635.53 2785.6,-642.41"/>
</g>
<!-- 24 -->
<g id="node25" class="node">
<title>24</title>
<path fill="none" stroke="#70d856" stroke-width="2" stroke-dasharray="5,2" d="M3195,-639C3195,-639 3022,-639 3022,-639 3016,-639 3010,-633 3010,-627 3010,-627 3010,-588 3010,-588 3010,-582 3016,-576 3022,-576 3022,-576 3195,-576 3195,-576 3201,-576 3207,-582 3207,-588 3207,-588 3207,-627 3207,-627 3207,-633 3201,-639 3195,-639"/>
<text text-anchor="middle" x="3108.5" y="-627" font-family="sans" font-size="10.00">quantify_images</text>
<text text-anchor="middle" x="3108.5" y="-616" font-family="sans" font-size="10.00">channel: green</text>
<text text-anchor="middle" x="3108.5" y="-605" font-family="sans" font-size="10.00">condition: Green23_30</text>
<text text-anchor="middle" x="3108.5" y="-594" font-family="sans" font-size="10.00">tile: DNA_tile9</text>
<text text-anchor="middle" x="3108.5" y="-583" font-family="sans" font-size="10.00">timestamp: 2011.12.23&#45;17.17.54.609</text>
</g>
<!-- 6&#45;&gt;24 -->
<g id="edge49" class="edge">
<title>6&#45;&gt;24</title>
<path fill="none" stroke="grey" stroke-width="2" d="M2305.11,-691.95C2429.46,-691 2735.7,-684.02 2999.65,-639"/>
<polygon fill="grey" stroke="grey" stroke-width="2" points="3000.55,-642.4 3009.81,-637.24 2999.36,-635.5 3000.55,-642.4"/>
</g>
<!-- 25 -->
<g id="node26" class="node">
<title>25</title>
<path fill="none" stroke="#70d856" stroke-width="2" stroke-dasharray="5,2" d="M3410,-639C3410,-639 3237,-639 3237,-639 3231,-639 3225,-633 3225,-627 3225,-627 3225,-588 3225,-588 3225,-582 3231,-576 3237,-576 3237,-576 3410,-576 3410,-576 3416,-576 3422,-582 3422,-588 3422,-588 3422,-627 3422,-627 3422,-633 3416,-639 3410,-639"/>
<text text-anchor="middle" x="3323.5" y="-627" font-family="sans" font-size="10.00">quantify_images</text>
<text text-anchor="middle" x="3323.5" y="-616" font-family="sans" font-size="10.00">channel: green</text>
<text text-anchor="middle" x="3323.5" y="-605" font-family="sans" font-size="10.00">condition: Green24_27.5</text>
<text text-anchor="middle" x="3323.5" y="-594" font-family="sans" font-size="10.00">tile: DNA_tile15</text>
<text text-anchor="middle" x="3323.5" y="-583" font-family="sans" font-size="10.00">timestamp: 2011.12.23&#45;17.22.13.812</text>
</g>
<!-- 6&#45;&gt;25 -->
<g id="edge50" class="edge">
<title>6&#45;&gt;25</title>
<path fill="none" stroke="grey" stroke-width="2" d="M2305.28,-690.53C2481.63,-685.72 3019.21,-669.06 3214.66,-638.94"/>
<polygon fill="grey" stroke="grey" stroke-width="2" points="3215.5,-642.35 3224.82,-637.31 3214.39,-635.44 3215.5,-642.35"/>
</g>
<!-- 26 -->
<g id="node27" class="node">
<title>26</title>
<path fill="none" stroke="#70d856" stroke-width="2" stroke-dasharray="5,2" d="M3625,-639C3625,-639 3452,-639 3452,-639 3446,-639 3440,-633 3440,-627 3440,-627 3440,-588 3440,-588 3440,-582 3446,-576 3452,-576 3452,-576 3625,-576 3625,-576 3631,-576 3637,-582 3637,-588 3637,-588 3637,-627 3637,-627 3637,-633 3631,-639 3625,-639"/>
<text text-anchor="middle" x="3538.5" y="-627" font-family="sans" font-size="10.00">quantify_images</text>
<text text-anchor="middle" x="3538.5" y="-616" font-family="sans" font-size="10.00">channel: green</text>
<text text-anchor="middle" x="3538.5" y="-605" font-family="sans" font-size="10.00">condition: Green25_25</text>
<text text-anchor="middle" x="3538.5" y="-594" font-family="sans" font-size="10.00">tile: DNA_tile5</text>
<text text-anchor="middle" x="3538.5" y="-583" font-family="sans" font-size="10.00">timestamp: 2011.12.23&#45;17.25.32.890</text>
</g>
<!-- 6&#45;&gt;26 -->
<g id="edge51" class="edge">
<title>6&#45;&gt;26</title>
<path fill="none" stroke="grey" stroke-width="2" d="M2305.34,-691.19C2507.25,-688.02 3190.12,-674.99 3429.78,-638.92"/>
<polygon fill="grey" stroke="grey" stroke-width="2" points="3430.49,-642.35 3439.83,-637.35 3429.41,-635.43 3430.49,-642.35"/>
</g>
<!-- 27 -->
<g id="node28" class="node">
<title>27</title>
<path fill="none" stroke="#70d856" stroke-width="2" stroke-dasharray="5,2" d="M3840,-639C3840,-639 3667,-639 3667,-639 3661,-639 3655,-633 3655,-627 3655,-627 3655,-588 3655,-588 3655,-582 3661,-576 3667,-576 3667,-576 3840,-576 3840,-576 3846,-576 3852,-582 3852,-588 3852,-588 3852,-627 3852,-627 3852,-633 3846,-639 3840,-639"/>
<text text-anchor="middle" x="3753.5" y="-627" font-family="sans" font-size="10.00">quantify_images</text>
<text text-anchor="middle" x="3753.5" y="-616" font-family="sans" font-size="10.00">channel: green</text>
<text text-anchor="middle" x="3753.5" y="-605" font-family="sans" font-size="10.00">condition: Green26_22.5</text>
<text text-anchor="middle" x="3753.5" y="-594" font-family="sans" font-size="10.00">tile: DNA_tile13</text>
<text text-anchor="middle" x="3753.5" y="-583" font-family="sans" font-size="10.00">timestamp: 2011.12.23&#45;17.31.29.421</text>
</g>
<!-- 6&#45;&gt;27 -->
<g id="edge52" class="edge">
<title>6&#45;&gt;27</title>
<path fill="none" stroke="grey" stroke-width="2" d="M2305.23,-691.64C2530.12,-689.94 3360.13,-681.02 3644.54,-638.95"/>
<polygon fill="grey" stroke="grey" stroke-width="2" points="3645.48,-642.35 3654.83,-637.38 3644.42,-635.43 3645.48,-642.35"/>
</g>
<!-- 28 -->
<g id="node29" class="node">
<title>28</title>
<path fill="none" stroke="#70d856" stroke-width="2" stroke-dasharray="5,2" d="M4055,-639C4055,-639 3882,-639 3882,-639 3876,-639 3870,-633 3870,-627 3870,-627 3870,-588 3870,-588 3870,-582 3876,-576 3882,-576 3882,-576 4055,-576 4055,-576 4061,-576 4067,-582 4067,-588 4067,-588 4067,-627 4067,-627 4067,-633 4061,-639 4055,-639"/>
<text text-anchor="middle" x="3968.5" y="-627" font-family="sans" font-size="10.00">quantify_images</text>
<text text-anchor="middle" x="3968.5" y="-616" font-family="sans" font-size="10.00">channel: green</text>
<text text-anchor="middle" x="3968.5" y="-605" font-family="sans" font-size="10.00">condition: Green27_20</text>
<text text-anchor="middle" x="3968.5" y="-594" font-family="sans" font-size="10.00">tile: DNA_tile4</text>
<text text-anchor="middle" x="3968.5" y="-583" font-family="sans" font-size="10.00">timestamp: 2011.12.23&#45;17.36.55.625</text>
</g>
<!-- 6&#45;&gt;28 -->
<g id="edge53" class="edge">
<title>6&#45;&gt;28</title>
<path fill="none" stroke="grey" stroke-width="2" d="M2305.31,-691.98C2551.87,-691.59 3531.1,-687.08 3859.83,-638.91"/>
<polygon fill="grey" stroke="grey" stroke-width="2" points="3860.47,-642.35 3869.84,-637.4 3859.42,-635.43 3860.47,-642.35"/>
</g>
<!-- 7 -->
<g id="node8" class="node">
<title>7</title>
<path fill="none" stroke="#56d88a" stroke-width="2" stroke-dasharray="5,2" d="M2273,-783C2273,-783 2224,-783 2224,-783 2218,-783 2212,-777 2212,-771 2212,-771 2212,-759 2212,-759 2212,-753 2218,-747 2224,-747 2224,-747 2273,-747 2273,-747 2279,-747 2285,-753 2285,-759 2285,-759 2285,-771 2285,-771 2285,-777 2279,-783 2273,-783"/>
<text text-anchor="middle" x="2248.5" y="-762.5" font-family="sans" font-size="10.00">split_CPseq</text>
</g>
<!-- 7&#45;&gt;6 -->
<g id="edge32" class="edge">
<title>7&#45;&gt;6</title>
<path fill="none" stroke="grey" stroke-width="2" d="M2248.5,-746.7C2248.5,-738.98 2248.5,-729.71 2248.5,-721.11"/>
<polygon fill="grey" stroke="grey" stroke-width="2" points="2252,-721.1 2248.5,-711.1 2245,-721.1 2252,-721.1"/>
</g>
<!-- 8 -->
<g id="node9" class="node">
<title>8</title>
<path fill="none" stroke="#56d8c1" stroke-width="2" stroke-dasharray="5,2" d="M2303.5,-855C2303.5,-855 2193.5,-855 2193.5,-855 2187.5,-855 2181.5,-849 2181.5,-843 2181.5,-843 2181.5,-831 2181.5,-831 2181.5,-825 2187.5,-819 2193.5,-819 2193.5,-819 2303.5,-819 2303.5,-819 2309.5,-819 2315.5,-825 2315.5,-831 2315.5,-831 2315.5,-843 2315.5,-843 2315.5,-849 2309.5,-855 2303.5,-855"/>
<text text-anchor="middle" x="2248.5" y="-834.5" font-family="sans" font-size="10.00">merge_fastqs_to_CPseq</text>
</g>
<!-- 8&#45;&gt;7 -->
<g id="edge33" class="edge">
<title>8&#45;&gt;7</title>
<path fill="none" stroke="grey" stroke-width="2" d="M2248.5,-818.7C2248.5,-810.98 2248.5,-801.71 2248.5,-793.11"/>
<polygon fill="grey" stroke="grey" stroke-width="2" points="2252,-793.1 2248.5,-783.1 2245,-793.1 2252,-793.1"/>
</g>
<!-- 9&#45;&gt;4 -->
<g id="edge9" class="edge">
<title>9&#45;&gt;4</title>
<path fill="none" stroke="grey" stroke-width="2" d="M4299.84,-577.6C4296.7,-577.01 4293.58,-576.48 4290.5,-576 3959.23,-524.91 2887.23,-522.66 2627.54,-522.89"/>
<polygon fill="grey" stroke="grey" stroke-width="2" points="2627.21,-519.39 2617.22,-522.9 2627.22,-526.39 2627.21,-519.39"/>
</g>
<!-- 10&#45;&gt;4 -->
<g id="edge10" class="edge">
<title>10&#45;&gt;4</title>
<path fill="none" stroke="grey" stroke-width="2" d="M197.12,-577.4C199.93,-576.89 202.73,-576.42 205.5,-576 439.99,-540.55 2176.67,-525.92 2513.87,-523.4"/>
<polygon fill="grey" stroke="grey" stroke-width="2" points="2513.93,-526.9 2523.9,-523.33 2513.87,-519.9 2513.93,-526.9"/>
</g>
<!-- 11&#45;&gt;4 -->
<g id="edge11" class="edge">
<title>11&#45;&gt;4</title>
<path fill="none" stroke="grey" stroke-width="2" d="M412.12,-577.41C414.93,-576.89 417.73,-576.42 420.5,-576 632.41,-543.72 2194.19,-526.7 2513.56,-523.54"/>
<polygon fill="grey" stroke="grey" stroke-width="2" points="2513.99,-527.04 2523.95,-523.44 2513.92,-520.04 2513.99,-527.04"/>
</g>
<!-- 12&#45;&gt;4 -->
<g id="edge12" class="edge">
<title>12&#45;&gt;4</title>
<path fill="none" stroke="grey" stroke-width="2" d="M627.12,-577.42C629.93,-576.9 632.73,-576.43 635.5,-576 1011.2,-518.24 2233.86,-521.18 2513.28,-522.64"/>
<polygon fill="grey" stroke="grey" stroke-width="2" points="2513.56,-526.14 2523.58,-522.7 2513.6,-519.14 2513.56,-526.14"/>
</g>
<!-- 13&#45;&gt;4 -->
<g id="edge13" class="edge">
<title>13&#45;&gt;4</title>
<path fill="none" stroke="grey" stroke-width="2" d="M842.12,-577.43C844.94,-576.91 847.73,-576.43 850.5,-576 1181.71,-524.5 2253.75,-522.56 2513.45,-522.87"/>
<polygon fill="grey" stroke="grey" stroke-width="2" points="2513.77,-526.37 2523.78,-522.88 2513.78,-519.37 2513.77,-526.37"/>
</g>
<!-- 14&#45;&gt;4 -->
<g id="edge14" class="edge">
<title>14&#45;&gt;4</title>
<path fill="none" stroke="grey" stroke-width="2" d="M1057.12,-577.45C1059.94,-576.92 1062.73,-576.44 1065.5,-576 1352.42,-530.74 2275.06,-524.12 2513.72,-523.16"/>
<polygon fill="grey" stroke="grey" stroke-width="2" points="2513.92,-526.66 2523.9,-523.12 2513.89,-519.66 2513.92,-526.66"/>
</g>
<!-- 15&#45;&gt;4 -->
<g id="edge15" class="edge">
<title>15&#45;&gt;4</title>
<path fill="none" stroke="grey" stroke-width="2" d="M1272.13,-577.47C1274.94,-576.94 1277.73,-576.44 1280.5,-576 1523.14,-537 2296.61,-525.93 2513.48,-523.55"/>
<polygon fill="grey" stroke="grey" stroke-width="2" points="2513.72,-527.05 2523.68,-523.44 2513.64,-520.05 2513.72,-527.05"/>
</g>
<!-- 16&#45;&gt;4 -->
<g id="edge16" class="edge">
<title>16&#45;&gt;4</title>
<path fill="none" stroke="grey" stroke-width="2" d="M1487.13,-577.5C1489.94,-576.96 1492.74,-576.46 1495.5,-576 1694.3,-543.21 2321.04,-528.05 2513.63,-524.09"/>
<polygon fill="grey" stroke="grey" stroke-width="2" points="2513.89,-527.59 2523.82,-523.88 2513.75,-520.59 2513.89,-527.59"/>
</g>
<!-- 17&#45;&gt;4 -->
<g id="edge17" class="edge">
<title>17&#45;&gt;4</title>
<path fill="none" stroke="grey" stroke-width="2" d="M1702.14,-577.54C1704.95,-576.99 1707.74,-576.47 1710.5,-576 2009.75,-524.75 2375.06,-521.45 2513.59,-522.28"/>
<polygon fill="grey" stroke="grey" stroke-width="2" points="2513.92,-525.79 2523.95,-522.36 2513.97,-518.79 2513.92,-525.79"/>
</g>
<!-- 18&#45;&gt;4 -->
<g id="edge18" class="edge">
<title>18&#45;&gt;4</title>
<path fill="none" stroke="grey" stroke-width="2" d="M1917.15,-577.62C1919.96,-577.04 1922.74,-576.5 1925.5,-576 2140.43,-536.93 2400.94,-526.63 2513.82,-523.94"/>
<polygon fill="grey" stroke="grey" stroke-width="2" points="2514.03,-527.44 2523.95,-523.71 2513.87,-520.44 2514.03,-527.44"/>
</g>
<!-- 19&#45;&gt;4 -->
<g id="edge19" class="edge">
<title>19&#45;&gt;4</title>
<path fill="none" stroke="grey" stroke-width="2" d="M2132.18,-577.77C2134.98,-577.15 2137.76,-576.56 2140.5,-576 2272.87,-549.14 2431.11,-533.89 2513.8,-527.17"/>
<polygon fill="grey" stroke="grey" stroke-width="2" points="2514.3,-530.64 2523.99,-526.36 2513.74,-523.66 2514.3,-530.64"/>
</g>
<!-- 20&#45;&gt;4 -->
<g id="edge20" class="edge">
<title>20&#45;&gt;4</title>
<path fill="none" stroke="grey" stroke-width="2" d="M2347.28,-578.2C2350.05,-577.45 2352.79,-576.72 2355.5,-576 2409.1,-561.76 2470.57,-546.74 2514.01,-536.34"/>
<polygon fill="grey" stroke="grey" stroke-width="2" points="2514.91,-539.72 2523.82,-533.99 2513.28,-532.91 2514.91,-539.72"/>
</g>
<!-- 21&#45;&gt;4 -->
<g id="edge21" class="edge">
<title>21&#45;&gt;4</title>
<path fill="none" stroke="grey" stroke-width="2" d="M2502.74,-575.88C2515.21,-566.14 2528.81,-555.53 2540.53,-546.39"/>
<polygon fill="grey" stroke="grey" stroke-width="2" points="2542.95,-548.94 2548.68,-540.03 2538.64,-543.42 2542.95,-548.94"/>
</g>
<!-- 22&#45;&gt;4 -->
<g id="edge22" class="edge">
<title>22&#45;&gt;4</title>
<path fill="none" stroke="grey" stroke-width="2" d="M2638.9,-575.88C2626.3,-566.14 2612.58,-555.53 2600.75,-546.39"/>
<polygon fill="grey" stroke="grey" stroke-width="2" points="2602.57,-543.37 2592.52,-540.03 2598.29,-548.91 2602.57,-543.37"/>
</g>
<!-- 23&#45;&gt;4 -->
<g id="edge23" class="edge">
<title>23&#45;&gt;4</title>
<path fill="none" stroke="grey" stroke-width="2" d="M2794.95,-578.52C2791.76,-577.66 2788.61,-576.82 2785.5,-576 2731.88,-561.82 2670.42,-546.79 2626.98,-536.38"/>
<polygon fill="grey" stroke="grey" stroke-width="2" points="2627.71,-532.95 2617.17,-534.03 2626.08,-539.76 2627.71,-532.95"/>
</g>
<!-- 24&#45;&gt;4 -->
<g id="edge24" class="edge">
<title>24&#45;&gt;4</title>
<path fill="none" stroke="grey" stroke-width="2" d="M3009.77,-577.97C3006.65,-577.27 3003.56,-576.62 3000.5,-576 2868.1,-549.31 2709.87,-533.98 2627.19,-527.21"/>
<polygon fill="grey" stroke="grey" stroke-width="2" points="2627.26,-523.71 2617.01,-526.39 2626.69,-530.68 2627.26,-523.71"/>
</g>
<!-- 25&#45;&gt;4 -->
<g id="edge25" class="edge">
<title>25&#45;&gt;4</title>
<path fill="none" stroke="grey" stroke-width="2" d="M3224.8,-577.8C3221.67,-577.16 3218.57,-576.55 3215.5,-576 3000.52,-537.19 2740.04,-526.76 2627.18,-523.99"/>
<polygon fill="grey" stroke="grey" stroke-width="2" points="2627.12,-520.49 2617.04,-523.75 2626.96,-527.48 2627.12,-520.49"/>
</g>
<!-- 26&#45;&gt;4 -->
<g id="edge26" class="edge">
<title>26&#45;&gt;4</title>
<path fill="none" stroke="grey" stroke-width="2" d="M3439.82,-577.72C3436.68,-577.1 3433.57,-576.52 3430.5,-576 3131.19,-525.12 2765.91,-521.6 2627.4,-522.33"/>
<polygon fill="grey" stroke="grey" stroke-width="2" points="2627.02,-518.83 2617.04,-522.39 2627.07,-525.83 2627.02,-518.83"/>
</g>
<!-- 27&#45;&gt;4 -->
<g id="edge27" class="edge">
<title>27&#45;&gt;4</title>
<path fill="none" stroke="grey" stroke-width="2" d="M3654.82,-577.67C3651.69,-577.06 3648.58,-576.5 3645.5,-576 3446.66,-543.45 2819.95,-528.13 2627.36,-524.11"/>
<polygon fill="grey" stroke="grey" stroke-width="2" points="2627.25,-520.61 2617.18,-523.9 2627.1,-527.6 2627.25,-520.61"/>
</g>
<!-- 28&#45;&gt;4 -->
<g id="edge28" class="edge">
<title>28&#45;&gt;4</title>
<path fill="none" stroke="grey" stroke-width="2" d="M3869.83,-577.64C3866.69,-577.04 3863.58,-576.49 3860.5,-576 3617.81,-537.29 2844.38,-526.01 2627.52,-523.57"/>
<polygon fill="grey" stroke="grey" stroke-width="2" points="2627.35,-520.07 2617.32,-523.46 2627.28,-527.07 2627.35,-520.07"/>
</g>
<!-- 29 -->
<g id="node30" class="node">
<title>29</title>
<path fill="none" stroke="#d88d56" stroke-width="2" d="M4607.5,-625.5C4607.5,-625.5 4527.5,-625.5 4527.5,-625.5 4521.5,-625.5 4515.5,-619.5 4515.5,-613.5 4515.5,-613.5 4515.5,-601.5 4515.5,-601.5 4515.5,-595.5 4521.5,-589.5 4527.5,-589.5 4527.5,-589.5 4607.5,-589.5 4607.5,-589.5 4613.5,-589.5 4619.5,-595.5 4619.5,-601.5 4619.5,-601.5 4619.5,-613.5 4619.5,-613.5 4619.5,-619.5 4613.5,-625.5 4607.5,-625.5"/>
<text text-anchor="middle" x="4567.5" y="-605" font-family="sans" font-size="10.00">write_old_mapfile</text>
</g>
<!-- 29&#45;&gt;4 -->
<g id="edge29" class="edge">
<title>29&#45;&gt;4</title>
<path fill="none" stroke="grey" stroke-width="2" d="M4539.15,-589.37C4528.91,-584.06 4517.03,-578.85 4505.5,-576 4319.4,-530.01 2927.89,-523.9 2627.54,-523.11"/>
<polygon fill="grey" stroke="grey" stroke-width="2" points="2627.32,-519.61 2617.32,-523.09 2627.31,-526.61 2627.32,-519.61"/>
</g>
<!-- 30 -->
<g id="node31" class="node">
<title>30</title>
<path fill="none" stroke="#d8a456" stroke-width="2" stroke-dasharray="5,2" d="M4801.5,-625.5C4801.5,-625.5 4649.5,-625.5 4649.5,-625.5 4643.5,-625.5 4637.5,-619.5 4637.5,-613.5 4637.5,-613.5 4637.5,-601.5 4637.5,-601.5 4637.5,-595.5 4643.5,-589.5 4649.5,-589.5 4649.5,-589.5 4801.5,-589.5 4801.5,-589.5 4807.5,-589.5 4813.5,-595.5 4813.5,-601.5 4813.5,-601.5 4813.5,-613.5 4813.5,-613.5 4813.5,-619.5 4807.5,-625.5 4801.5,-625.5"/>
<text text-anchor="middle" x="4725.5" y="-605" font-family="sans" font-size="10.00">align_consensus_read_to_library</text>
</g>
<!-- 30&#45;&gt;1 -->
<g id="edge5" class="edge">
<title>30&#45;&gt;1</title>
<path fill="none" stroke="grey" stroke-width="2" d="M4725.5,-589.24C4725.5,-560.55 4725.5,-501.21 4725.5,-451 4725.5,-451 4725.5,-451 4725.5,-233 4725.5,-192.55 4732.59,-174.91 4706.5,-144 4688.02,-122.1 4659.22,-109.18 4633.13,-101.59"/>
<polygon fill="grey" stroke="grey" stroke-width="2" points="4633.86,-98.16 4623.3,-98.93 4632.04,-104.92 4633.86,-98.16"/>
</g>
<!-- 30&#45;&gt;4 -->
<g id="edge30" class="edge">
<title>30&#45;&gt;4</title>
<path fill="none" stroke="grey" stroke-width="2" d="M4680.25,-589.4C4664.15,-584.09 4645.74,-578.87 4628.5,-576 4426.65,-542.35 2938.83,-526.49 2627.52,-523.52"/>
<polygon fill="grey" stroke="grey" stroke-width="2" points="2627.4,-520.02 2617.37,-523.42 2627.33,-527.02 2627.4,-520.02"/>
</g>
<!-- 33 -->
<g id="node34" class="node">
<title>33</title>
<path fill="none" stroke="#d8bc56" stroke-width="2" d="M4678,-252C4678,-252 4557,-252 4557,-252 4551,-252 4545,-246 4545,-240 4545,-240 4545,-228 4545,-228 4545,-222 4551,-216 4557,-216 4557,-216 4678,-216 4678,-216 4684,-216 4690,-222 4690,-228 4690,-228 4690,-240 4690,-240 4690,-246 4684,-252 4678,-252"/>
<text text-anchor="middle" x="4617.5" y="-231.5" font-family="sans" font-size="10.00">bootstrap_variant_median</text>
</g>
<!-- 30&#45;&gt;33 -->
<g id="edge57" class="edge">
<title>30&#45;&gt;33</title>
<path fill="none" stroke="grey" stroke-width="2" d="M4716.28,-589.34C4702.09,-561.25 4676.5,-503.36 4676.5,-451 4676.5,-451 4676.5,-451 4676.5,-377 4676.5,-333.83 4652.96,-288.53 4635.61,-261.03"/>
<polygon fill="grey" stroke="grey" stroke-width="2" points="4638.4,-258.89 4630.01,-252.41 4632.53,-262.7 4638.4,-258.89"/>
</g>
<!-- 31 -->
<g id="node32" class="node">
<title>31</title>
<path fill="none" stroke="#d6d856" stroke-width="2" stroke-dasharray="5,2" d="M4784,-711C4784,-711 4667,-711 4667,-711 4661,-711 4655,-705 4655,-699 4655,-699 4655,-687 4655,-687 4655,-681 4661,-675 4667,-675 4667,-675 4784,-675 4784,-675 4790,-675 4796,-681 4796,-687 4796,-687 4796,-699 4796,-699 4796,-705 4790,-711 4784,-711"/>
<text text-anchor="middle" x="4725.5" y="-690.5" font-family="sans" font-size="10.00">convert_FLASH_to_CPseq</text>
</g>
<!-- 31&#45;&gt;30 -->
<g id="edge54" class="edge">
<title>31&#45;&gt;30</title>
<path fill="none" stroke="grey" stroke-width="2" d="M4725.5,-674.7C4725.5,-663.5 4725.5,-648.69 4725.5,-635.91"/>
<polygon fill="grey" stroke="grey" stroke-width="2" points="4729,-635.78 4725.5,-625.78 4722,-635.78 4729,-635.78"/>
</g>
<!-- 32 -->
<g id="node33" class="node">
<title>32</title>
<path fill="none" stroke="#5673d8" stroke-width="2" stroke-dasharray="5,2" d="M4748.5,-783C4748.5,-783 4702.5,-783 4702.5,-783 4696.5,-783 4690.5,-777 4690.5,-771 4690.5,-771 4690.5,-759 4690.5,-759 4690.5,-753 4696.5,-747 4702.5,-747 4702.5,-747 4748.5,-747 4748.5,-747 4754.5,-747 4760.5,-753 4760.5,-759 4760.5,-759 4760.5,-771 4760.5,-771 4760.5,-777 4754.5,-783 4748.5,-783"/>
<text text-anchor="middle" x="4725.5" y="-762.5" font-family="sans" font-size="10.00">run_FLASH</text>
</g>
<!-- 32&#45;&gt;31 -->
<g id="edge55" class="edge">
<title>32&#45;&gt;31</title>
<path fill="none" stroke="grey" stroke-width="2" d="M4725.5,-746.7C4725.5,-738.98 4725.5,-729.71 4725.5,-721.11"/>
<polygon fill="grey" stroke="grey" stroke-width="2" points="4729,-721.1 4725.5,-711.1 4722,-721.1 4729,-721.1"/>
</g>
<!-- 33&#45;&gt;1 -->
<g id="edge3" class="edge">
<title>33&#45;&gt;1</title>
<path fill="none" stroke="grey" stroke-width="2" d="M4579.62,-215.91C4565.27,-207.33 4550.49,-195.43 4542.5,-180 4531.96,-159.65 4542.24,-134.92 4553.7,-116.7"/>
<polygon fill="grey" stroke="grey" stroke-width="2" points="4556.66,-118.58 4559.34,-108.33 4550.85,-114.67 4556.66,-118.58"/>
</g>
<!-- 35 -->
<g id="node36" class="node">
<title>35</title>
<path fill="none" stroke="#d86e56" stroke-width="2" d="M4685.5,-180C4685.5,-180 4563.5,-180 4563.5,-180 4557.5,-180 4551.5,-174 4551.5,-168 4551.5,-168 4551.5,-156 4551.5,-156 4551.5,-150 4557.5,-144 4563.5,-144 4563.5,-144 4685.5,-144 4685.5,-144 4691.5,-144 4697.5,-150 4697.5,-156 4697.5,-156 4697.5,-168 4697.5,-168 4697.5,-174 4691.5,-180 4685.5,-180"/>
<text text-anchor="middle" x="4624.5" y="-159.5" font-family="sans" font-size="10.00">fit_fmax_fmin_distribution</text>
</g>
<!-- 33&#45;&gt;35 -->
<g id="edge59" class="edge">
<title>33&#45;&gt;35</title>
<path fill="none" stroke="grey" stroke-width="2" d="M4619.23,-215.7C4620,-207.98 4620.93,-198.71 4621.79,-190.11"/>
<polygon fill="grey" stroke="grey" stroke-width="2" points="4625.28,-190.4 4622.79,-180.1 4618.31,-189.71 4625.28,-190.4"/>
</g>
<!-- 34&#45;&gt;33 -->
<g id="edge56" class="edge">
<title>34&#45;&gt;33</title>
<path fill="none" stroke="grey" stroke-width="2" d="M4585.88,-287.7C4590.76,-279.56 4596.69,-269.69 4602.08,-260.7"/>
<polygon fill="grey" stroke="grey" stroke-width="2" points="4605.09,-262.48 4607.24,-252.1 4599.09,-258.88 4605.09,-262.48"/>
</g>
<!-- 35&#45;&gt;1 -->
<g id="edge4" class="edge">
<title>35&#45;&gt;1</title>
<path fill="none" stroke="grey" stroke-width="2" d="M4611.89,-143.7C4605.9,-135.47 4598.62,-125.48 4592.02,-116.42"/>
<polygon fill="grey" stroke="grey" stroke-width="2" points="4594.68,-114.13 4585.96,-108.1 4589.02,-118.25 4594.68,-114.13"/>
</g>
</g>
</svg>
