<?xml version="1.0" encoding="UTF-8" standalone="no"?>
<!DOCTYPE svg PUBLIC "-//W3C//DTD SVG 1.1//EN"
 "http://www.w3.org/Graphics/SVG/1.1/DTD/svg11.dtd">
<!-- Generated by graphviz version 2.49.1 (20211004.0028)
 -->
<!-- Title: snakemake_dag Pages: 1 -->
<svg width="310pt" height="332pt"
 viewBox="0.00 0.00 310.00 332.00" xmlns="http://www.w3.org/2000/svg" xmlns:xlink="http://www.w3.org/1999/xlink">
<g id="graph0" class="graph" transform="scale(1 1) rotate(0) translate(4 328)">
<title>snakemake_dag</title>
<polygon fill="white" stroke="transparent" points="-4,4 -4,-328 306,-328 306,4 -4,4"/>
<!-- 0 -->
<g id="node1" class="node">
<title>0</title>
<path fill="none" stroke="#5692d8" stroke-width="2" d="M176,-36C176,-36 146,-36 146,-36 140,-36 134,-30 134,-24 134,-24 134,-12 134,-12 134,-6 140,0 146,0 146,0 176,0 176,0 182,0 188,-6 188,-12 188,-12 188,-24 188,-24 188,-30 182,-36 176,-36"/>
<text text-anchor="middle" x="161" y="-15.5" font-family="sans" font-size="10.00">all</text>
</g>
<!-- 1 -->
<g id="node2" class="node">
<title>1</title>
<path fill="none" stroke="#70d856" stroke-width="2" d="M164,-108C164,-108 12,-108 12,-108 6,-108 0,-102 0,-96 0,-96 0,-84 0,-84 0,-78 6,-72 12,-72 12,-72 164,-72 164,-72 170,-72 176,-78 176,-84 176,-84 176,-96 176,-96 176,-102 170,-108 164,-108"/>
<text text-anchor="middle" x="88" y="-87.5" font-family="sans" font-size="10.00">align_consensus_read_to_library</text>
</g>
<!-- 1&#45;&gt;0 -->
<g id="edge1" class="edge">
<title>1&#45;&gt;0</title>
<path fill="none" stroke="grey" stroke-width="2" d="M106.04,-71.7C115.06,-63.05 126.12,-52.45 135.94,-43.03"/>
<polygon fill="grey" stroke="grey" stroke-width="2" points="138.37,-45.55 143.16,-36.1 133.52,-40.5 138.37,-45.55"/>
</g>
<!-- 2 -->
<g id="node3" class="node">
<title>2</title>
<path fill="none" stroke="#afd856" stroke-width="2" stroke-dasharray="5,2" d="M146.5,-180C146.5,-180 29.5,-180 29.5,-180 23.5,-180 17.5,-174 17.5,-168 17.5,-168 17.5,-156 17.5,-156 17.5,-150 23.5,-144 29.5,-144 29.5,-144 146.5,-144 146.5,-144 152.5,-144 158.5,-150 158.5,-156 158.5,-156 158.5,-168 158.5,-168 158.5,-174 152.5,-180 146.5,-180"/>
<text text-anchor="middle" x="88" y="-159.5" font-family="sans" font-size="10.00">convert_FLASH_to_CPseq</text>
</g>
<!-- 2&#45;&gt;1 -->
<g id="edge3" class="edge">
<title>2&#45;&gt;1</title>
<path fill="none" stroke="grey" stroke-width="2" d="M88,-143.7C88,-135.98 88,-126.71 88,-118.11"/>
<polygon fill="grey" stroke="grey" stroke-width="2" points="91.5,-118.1 88,-108.1 84.5,-118.1 91.5,-118.1"/>
</g>
<!-- 3 -->
<g id="node4" class="node">
<title>3</title>
<path fill="none" stroke="#d85656" stroke-width="2" stroke-dasharray="5,2" d="M111,-252C111,-252 65,-252 65,-252 59,-252 53,-246 53,-240 53,-240 53,-228 53,-228 53,-222 59,-216 65,-216 65,-216 111,-216 111,-216 117,-216 123,-222 123,-228 123,-228 123,-240 123,-240 123,-246 117,-252 111,-252"/>
<text text-anchor="middle" x="88" y="-231.5" font-family="sans" font-size="10.00">run_FLASH</text>
</g>
<!-- 3&#45;&gt;2 -->
<g id="edge4" class="edge">
<title>3&#45;&gt;2</title>
<path fill="none" stroke="grey" stroke-width="2" d="M88,-215.7C88,-207.98 88,-198.71 88,-190.11"/>
<polygon fill="grey" stroke="grey" stroke-width="2" points="91.5,-190.1 88,-180.1 84.5,-190.1 91.5,-190.1"/>
</g>
<!-- 4 -->
<g id="node5" class="node">
<title>4</title>
<path fill="none" stroke="#56d873" stroke-width="2" d="M263.5,-108C263.5,-108 206.5,-108 206.5,-108 200.5,-108 194.5,-102 194.5,-96 194.5,-96 194.5,-84 194.5,-84 194.5,-78 200.5,-72 206.5,-72 206.5,-72 263.5,-72 263.5,-72 269.5,-72 275.5,-78 275.5,-84 275.5,-84 275.5,-96 275.5,-96 275.5,-102 269.5,-108 263.5,-108"/>
<text text-anchor="middle" x="235" y="-87.5" font-family="sans" font-size="10.00">plot_fiducials</text>
</g>
<!-- 4&#45;&gt;0 -->
<g id="edge2" class="edge">
<title>4&#45;&gt;0</title>
<path fill="none" stroke="grey" stroke-width="2" d="M216.71,-71.7C207.57,-63.05 196.36,-52.45 186.4,-43.03"/>
<polygon fill="grey" stroke="grey" stroke-width="2" points="188.75,-40.43 179.08,-36.1 183.94,-45.52 188.75,-40.43"/>
</g>
<!-- 5 -->
<g id="node6" class="node">
<title>5</title>
<path fill="none" stroke="#56c9d8" stroke-width="2" d="M255.5,-180C255.5,-180 214.5,-180 214.5,-180 208.5,-180 202.5,-174 202.5,-168 202.5,-168 202.5,-156 202.5,-156 202.5,-150 208.5,-144 214.5,-144 214.5,-144 255.5,-144 255.5,-144 261.5,-144 267.5,-150 267.5,-156 267.5,-156 267.5,-168 267.5,-168 267.5,-174 261.5,-180 255.5,-180"/>
<text text-anchor="middle" x="235" y="-159.5" font-family="sans" font-size="10.00">filter_tiles</text>
</g>
<!-- 5&#45;&gt;4 -->
<g id="edge5" class="edge">
<title>5&#45;&gt;4</title>
<path fill="none" stroke="grey" stroke-width="2" d="M235,-143.7C235,-135.98 235,-126.71 235,-118.11"/>
<polygon fill="grey" stroke="grey" stroke-width="2" points="238.5,-118.1 235,-108.1 231.5,-118.1 238.5,-118.1"/>
</g>
<!-- 6 -->
<g id="node7" class="node">
<title>6</title>
<path fill="none" stroke="#56d8a9" stroke-width="2" d="M259.5,-252C259.5,-252 210.5,-252 210.5,-252 204.5,-252 198.5,-246 198.5,-240 198.5,-240 198.5,-228 198.5,-228 198.5,-222 204.5,-216 210.5,-216 210.5,-216 259.5,-216 259.5,-216 265.5,-216 271.5,-222 271.5,-228 271.5,-228 271.5,-240 271.5,-240 271.5,-246 265.5,-252 259.5,-252"/>
<text text-anchor="middle" x="235" y="-231.5" font-family="sans" font-size="10.00">split_CPseq</text>
</g>
<!-- 6&#45;&gt;5 -->
<g id="edge6" class="edge">
<title>6&#45;&gt;5</title>
<path fill="none" stroke="grey" stroke-width="2" d="M235,-215.7C235,-207.98 235,-198.71 235,-190.11"/>
<polygon fill="grey" stroke="grey" stroke-width="2" points="238.5,-190.1 235,-180.1 231.5,-190.1 238.5,-190.1"/>
</g>
<!-- 7 -->
<g id="node8" class="node">
<title>7</title>
<path fill="none" stroke="#d88d56" stroke-width="2" d="M290,-324C290,-324 180,-324 180,-324 174,-324 168,-318 168,-312 168,-312 168,-300 168,-300 168,-294 174,-288 180,-288 180,-288 290,-288 290,-288 296,-288 302,-294 302,-300 302,-300 302,-312 302,-312 302,-318 296,-324 290,-324"/>
<text text-anchor="middle" x="235" y="-303.5" font-family="sans" font-size="10.00">merge_fastqs_to_CPseq</text>
</g>
<!-- 7&#45;&gt;6 -->
<g id="edge7" class="edge">
<title>7&#45;&gt;6</title>
<path fill="none" stroke="grey" stroke-width="2" d="M235,-287.7C235,-279.98 235,-270.71 235,-262.11"/>
<polygon fill="grey" stroke="grey" stroke-width="2" points="238.5,-262.1 235,-252.1 231.5,-262.1 238.5,-262.1"/>
</g>
</g>
</svg>
